<svg xmlns="http://www.w3.org/2000/svg" xmlns:xlink="http://www.w3.org/1999/xlink" width="350" zoomAndPan="magnify" viewBox="0 0 262.5 52.499999" height="70" preserveAspectRatio="xMidYMid meet" version="1.0"><defs><filter x="0%" y="0%" width="100%" height="100%" id="e70b832075"><feColorMatrix values="0 0 0 0 1 0 0 0 0 1 0 0 0 0 1 0 0 0 1 0" color-interpolation-filters="sRGB"/></filter><g/><clipPath id="13fd74ab38"><path d="M 10.46875 9.898438 L 53.460938 9.898438 L 53.460938 44.511719 L 10.46875 44.511719 Z M 10.46875 9.898438 " clip-rule="nonzero"/></clipPath><clipPath id="63b23c3805"><path d="M 26.328125 9.898438 L 49.050781 9.898438 C 50.429688 9.898438 51.722656 10.5625 52.527344 11.679688 C 53.332031 12.796875 53.550781 14.230469 53.117188 15.539062 L 45.335938 38.871094 C 44.214844 42.238281 41.0625 44.511719 37.515625 44.511719 L 14.792969 44.511719 C 13.414062 44.511719 12.121094 43.847656 11.316406 42.730469 C 10.511719 41.613281 10.292969 40.179688 10.726562 38.871094 L 18.503906 15.539062 C 19.628906 12.171875 22.777344 9.898438 26.328125 9.898438 Z M 26.328125 9.898438 " clip-rule="nonzero"/></clipPath><mask id="fa0cca1113"><g filter="url(#e70b832075)"><rect x="-26.25" width="315" fill="#000000" y="-5.25" height="62.999998" fill-opacity="0.8"/></g></mask><clipPath id="5934a6ce2e"><path d="M 2.140625 0.527344 L 45.132812 0.527344 L 45.132812 35.140625 L 2.140625 35.140625 Z M 2.140625 0.527344 " clip-rule="nonzero"/></clipPath><clipPath id="b7d1eb45cf"><path d="M 17.996094 0.527344 L 40.71875 0.527344 C 42.097656 0.527344 43.390625 1.191406 44.195312 2.308594 C 45 3.425781 45.21875 4.859375 44.785156 6.167969 L 37.007812 29.5 C 35.882812 32.867188 32.734375 35.140625 29.183594 35.140625 L 6.460938 35.140625 C 5.082031 35.140625 3.789062 34.476562 2.984375 33.359375 C 2.179688 32.242188 1.960938 30.808594 2.394531 29.5 L 10.175781 6.167969 C 11.296875 2.800781 14.449219 0.527344 17.996094 0.527344 Z M 17.996094 0.527344 " clip-rule="nonzero"/></clipPath><clipPath id="27091b67dc"><rect x="0" width="47" y="0" height="36"/></clipPath></defs><g clip-path="url(#13fd74ab38)"><g clip-path="url(#63b23c3805)"><path fill="#0072ed" d="M 8.847656 9.898438 L 54.949219 9.898438 L 54.949219 44.511719 L 8.847656 44.511719 Z M 8.847656 9.898438 " fill-opacity="1" fill-rule="nonzero"/></g></g><g mask="url(#fa0cca1113)"><g transform="matrix(1, 0, 0, 1, 2, 3)"><g clip-path="url(#27091b67dc)"><g clip-path="url(#5934a6ce2e)"><g clip-path="url(#b7d1eb45cf)"><path fill="#21e8e6" d="M 0.515625 0.527344 L 46.617188 0.527344 L 46.617188 35.140625 L 0.515625 35.140625 Z M 0.515625 0.527344 " fill-opacity="1" fill-rule="nonzero"/></g></g></g></g></g><g fill="#050419" fill-opacity="1"><g transform="translate(60.902531, 36.551016)"><g><path d="M 4.0625 -24.90625 L 4.0625 -3.59375 L 15.78125 -3.59375 L 15.78125 0 L 0.46875 0 L 0.46875 -24.90625 Z M 4.0625 -24.90625 "/></g></g></g><g fill="#050419" fill-opacity="1"><g transform="translate(78.184523, 36.551016)"><g><path d="M 21.703125 -12.46875 C 21.703125 -13.757812 21.460938 -14.957031 20.984375 -16.0625 C 20.515625 -17.164062 19.875 -18.117188 19.0625 -18.921875 C 18.238281 -19.753906 17.265625 -20.414062 16.140625 -20.90625 C 15.023438 -21.394531 13.847656 -21.640625 12.609375 -21.640625 C 11.378906 -21.640625 10.21875 -21.394531 9.125 -20.90625 C 8.03125 -20.414062 7.066406 -19.753906 6.234375 -18.921875 C 5.429688 -18.117188 4.785156 -17.15625 4.296875 -16.03125 C 3.804688 -14.914062 3.5625 -13.726562 3.5625 -12.46875 C 3.5625 -11.207031 3.804688 -10.023438 4.296875 -8.921875 C 4.785156 -7.816406 5.429688 -6.847656 6.234375 -6.015625 C 7.066406 -5.191406 8.03125 -4.535156 9.125 -4.046875 C 10.21875 -3.554688 11.378906 -3.3125 12.609375 -3.3125 C 13.847656 -3.3125 15.023438 -3.554688 16.140625 -4.046875 C 17.265625 -4.535156 18.238281 -5.191406 19.0625 -6.015625 C 19.875 -6.847656 20.515625 -7.8125 20.984375 -8.90625 C 21.460938 -10 21.703125 -11.1875 21.703125 -12.46875 Z M -0.078125 -12.46875 C -0.078125 -14.226562 0.257812 -15.878906 0.9375 -17.421875 C 1.613281 -18.972656 2.515625 -20.328125 3.640625 -21.484375 C 4.773438 -22.648438 6.117188 -23.570312 7.671875 -24.25 C 9.234375 -24.925781 10.878906 -25.265625 12.609375 -25.265625 C 14.367188 -25.265625 16.019531 -24.925781 17.5625 -24.25 C 19.113281 -23.570312 20.472656 -22.648438 21.640625 -21.484375 C 22.753906 -20.328125 23.648438 -18.972656 24.328125 -17.421875 C 25.003906 -15.878906 25.34375 -14.226562 25.34375 -12.46875 C 25.34375 -10.71875 25.003906 -9.066406 24.328125 -7.515625 C 23.648438 -5.972656 22.753906 -4.617188 21.640625 -3.453125 C 20.472656 -2.285156 19.113281 -1.363281 17.5625 -0.6875 C 16.019531 -0.0078125 14.367188 0.328125 12.609375 0.328125 C 10.878906 0.328125 9.234375 -0.0078125 7.671875 -0.6875 C 6.117188 -1.363281 4.773438 -2.285156 3.640625 -3.453125 C 2.515625 -4.617188 1.613281 -5.972656 0.9375 -7.515625 C 0.257812 -9.066406 -0.078125 -10.71875 -0.078125 -12.46875 Z M -0.078125 -12.46875 "/></g></g></g><g fill="#050419" fill-opacity="1"><g transform="translate(105.728785, 36.551016)"><g><path d="M 0.109375 -12.40625 C 0.109375 -14.164062 0.429688 -15.8125 1.078125 -17.34375 C 1.734375 -18.875 2.597656 -20.207031 3.671875 -21.34375 C 4.765625 -22.46875 6.050781 -23.367188 7.53125 -24.046875 C 9.019531 -24.722656 10.609375 -25.0625 12.296875 -25.0625 C 14.191406 -25.0625 15.929688 -24.6875 17.515625 -23.9375 C 19.097656 -23.1875 20.441406 -22.117188 21.546875 -20.734375 C 22.648438 -19.359375 23.441406 -17.734375 23.921875 -15.859375 L 20.34375 -15.859375 C 19.6875 -17.734375 18.640625 -19.140625 17.203125 -20.078125 C 15.765625 -21.015625 14.128906 -21.484375 12.296875 -21.484375 C 11.109375 -21.484375 9.984375 -21.242188 8.921875 -20.765625 C 7.867188 -20.296875 6.953125 -19.644531 6.171875 -18.8125 C 5.378906 -18.007812 4.75 -17.0625 4.28125 -15.96875 C 3.820312 -14.875 3.59375 -13.6875 3.59375 -12.40625 C 3.59375 -11.164062 3.820312 -10.003906 4.28125 -8.921875 C 4.75 -7.847656 5.378906 -6.894531 6.171875 -6.0625 C 6.953125 -5.25 7.867188 -4.597656 8.921875 -4.109375 C 9.984375 -3.628906 11.109375 -3.390625 12.296875 -3.390625 C 14.191406 -3.390625 15.882812 -3.910156 17.375 -4.953125 C 18.863281 -5.992188 19.925781 -7.457031 20.5625 -9.34375 L 24.09375 -9.34375 C 23.613281 -7.457031 22.816406 -5.796875 21.703125 -4.359375 C 20.585938 -2.921875 19.226562 -1.804688 17.625 -1.015625 C 16.019531 -0.222656 14.242188 0.171875 12.296875 0.171875 C 10.609375 0.171875 9.019531 -0.15625 7.53125 -0.8125 C 6.050781 -1.476562 4.765625 -2.382812 3.671875 -3.53125 C 2.597656 -4.664062 1.734375 -5.992188 1.078125 -7.515625 C 0.429688 -9.035156 0.109375 -10.664062 0.109375 -12.40625 Z M 0.109375 -12.40625 "/></g></g></g><g fill="#050419" fill-opacity="1"><g transform="translate(131.562673, 36.551016)"><g><path d="M 9.84375 -19.53125 L 6.703125 -10.734375 L 12.90625 -10.734375 Z M 17.28125 0 L 14.296875 -7.34375 L 5.34375 -7.34375 C 4.875 -6.195312 4.359375 -4.945312 3.796875 -3.59375 C 3.234375 -2.238281 2.753906 -1.039062 2.359375 0 L -1.53125 0 L 8.484375 -25.265625 L 11.125 -25.265625 L 21.140625 0 Z M 17.28125 0 "/></g></g></g><g fill="#050419" fill-opacity="1"><g transform="translate(153.049343, 36.551016)"><g><path d="M 4.34375 -24.90625 L 4.34375 -3.59375 L 16.078125 -3.59375 L 16.078125 0 L 0.75 0 L 0.75 -24.90625 Z M 4.34375 -24.90625 "/></g></g></g><g fill="#050419" fill-opacity="1"><g transform="translate(170.616397, 36.551016)"><g><path d="M 5.484375 -10.9375 L 5.484375 -12.65625 L 9.6875 -12.65625 C 10.71875 -12.65625 11.5625 -12.867188 12.21875 -13.296875 C 12.882812 -13.722656 13.382812 -14.269531 13.71875 -14.9375 C 14.050781 -15.601562 14.21875 -16.289062 14.21875 -17 C 14.21875 -17.707031 14.050781 -18.394531 13.71875 -19.0625 C 13.382812 -19.726562 12.882812 -20.269531 12.21875 -20.6875 C 11.5625 -21.101562 10.71875 -21.3125 9.6875 -21.3125 L 4.171875 -21.3125 L 4.171875 0 L 0.609375 0 L 0.609375 -24.953125 L 9.6875 -24.953125 C 11.5 -24.953125 13.003906 -24.5625 14.203125 -23.78125 C 15.398438 -23.007812 16.300781 -22.019531 16.90625 -20.8125 C 17.519531 -19.601562 17.828125 -18.332031 17.828125 -17 C 17.828125 -15.832031 17.585938 -14.707031 17.109375 -13.625 C 16.628906 -12.550781 15.910156 -11.640625 14.953125 -10.890625 C 13.992188 -10.140625 12.800781 -9.632812 11.375 -9.375 L 19.25 0 L 14.578125 0 Z M 5.484375 -10.9375 "/></g></g></g><g fill="#050419" fill-opacity="1"><g transform="translate(189.929457, 36.551016)"><g><path d="M 9.84375 -19.53125 L 6.703125 -10.734375 L 12.90625 -10.734375 Z M 17.28125 0 L 14.296875 -7.34375 L 5.34375 -7.34375 C 4.875 -6.195312 4.359375 -4.945312 3.796875 -3.59375 C 3.234375 -2.238281 2.753906 -1.039062 2.359375 0 L -1.53125 0 L 8.484375 -25.265625 L 11.125 -25.265625 L 21.140625 0 Z M 17.28125 0 "/></g></g></g><g fill="#050419" fill-opacity="1"><g transform="translate(211.416127, 36.551016)"><g><path d="M 4.171875 0 L 0.5625 0 L 0.5625 -24.984375 L 3.34375 -24.953125 L 15.5 -7.375 L 15.5 -24.953125 L 19.0625 -24.953125 L 19.0625 0 L 16.21875 0 L 4.171875 -17.421875 Z M 4.171875 0 "/></g></g></g><g fill="#050419" fill-opacity="1"><g transform="translate(232.902797, 36.551016)"><g><path d="M 0.609375 -24.90625 L 4.171875 -24.90625 L 4.171875 0 L 0.609375 0 Z M 4.84375 -11.546875 L 4.84375 -13.359375 L 13.546875 -24.90625 L 18.0625 -24.90625 L 8.546875 -12.546875 L 19.0625 0 L 14.359375 0 Z M 4.84375 -11.546875 "/></g></g></g></svg>